<svg width="24" height="22" viewBox="0 0 24 22" fill="none" xmlns="http://www.w3.org/2000/svg">
<path d="M17.8896 19.8498H6.10955C5.79187 19.8501 5.48326 19.7438 5.23309 19.5481C4.98291 19.3523 4.80562 19.0782 4.72955 18.7698L2.07955 8.1598C2.05369 8.05651 2.05174 7.94868 2.07383 7.84452C2.09593 7.74036 2.1415 7.64261 2.20707 7.55872C2.27264 7.47483 2.35649 7.407 2.45223 7.3604C2.54797 7.3138 2.65307 7.28965 2.75955 7.2898H21.2396C21.346 7.28965 21.4511 7.3138 21.5469 7.3604C21.6426 7.407 21.7265 7.47483 21.792 7.55872C21.8576 7.64261 21.9032 7.74036 21.9253 7.84452C21.9474 7.94868 21.9454 8.05651 21.9196 8.1598L19.2696 18.7698C19.1935 19.0782 19.0162 19.3523 18.766 19.5481C18.5158 19.7438 18.2072 19.8501 17.8896 19.8498V19.8498Z" stroke="#151515" stroke-width="2.5" stroke-linecap="round" stroke-linejoin="round"/>
<path d="M9.79941 2.1499L6.89941 7.2899" stroke="#151515" stroke-width="2.5" stroke-linecap="round" stroke-linejoin="round"/>
<path d="M13.8799 2.1499L16.7899 7.2899" stroke="#151515" stroke-width="2.5" stroke-linecap="round" stroke-linejoin="round"/>
</svg>
