<svg width="14" height="14" viewBox="0 0 14 14" fill="none" xmlns="http://www.w3.org/2000/svg">
<path fill-rule="evenodd" clip-rule="evenodd" d="M6.34191 1.12663C6.38796 0.980602 6.47936 0.853056 6.60284 0.762519C6.72633 0.671983 6.87546 0.623169 7.02857 0.623169C7.18169 0.623169 7.33082 0.671983 7.4543 0.762519C7.57779 0.853056 7.66919 0.980602 7.71524 1.12663L8.95524 4.93996H12.9552C13.1138 4.93397 13.27 4.98006 13.4 5.07119C13.5299 5.16232 13.6264 5.29348 13.6748 5.44464C13.7232 5.5958 13.7207 5.75863 13.6678 5.90827C13.6149 6.0579 13.5145 6.18611 13.3819 6.2733L10.1352 8.62663L11.3752 12.4466C11.4243 12.5921 11.4255 12.7495 11.3788 12.8958C11.332 13.042 11.2397 13.1695 11.1154 13.2596C10.991 13.3497 10.8412 13.3977 10.6876 13.3966C10.5341 13.3954 10.3849 13.3452 10.2619 13.2533L7.00857 10.8733L3.76191 13.2333C3.63891 13.3252 3.48975 13.3754 3.3362 13.3766C3.18266 13.3777 3.03277 13.3297 2.90842 13.2396C2.78408 13.1495 2.69179 13.022 2.64505 12.8758C2.5983 12.7295 2.59953 12.5721 2.64857 12.4266L3.88857 8.60663L0.641908 6.2533C0.509297 6.16611 0.408876 6.0379 0.355988 5.88827C0.303101 5.73863 0.300655 5.5758 0.349025 5.42464C0.397395 5.27348 0.49392 5.14232 0.623853 5.05119C0.753786 4.96006 0.909981 4.91397 1.06857 4.91996H5.06857L6.34191 1.12663Z" fill="#151515"/>
</svg>

