<svg width="15" height="14" viewBox="0 0 15 14" fill="none" xmlns="http://www.w3.org/2000/svg">
<path fill-rule="evenodd" clip-rule="evenodd" d="M6.81945 1.12663C6.8655 0.980602 6.9569 0.853056 7.08038 0.762519C7.20387 0.671982 7.353 0.623169 7.50611 0.623169C7.65923 0.623169 7.80836 0.671982 7.93184 0.762519C8.05533 0.853056 8.14673 0.980602 8.19278 1.12663L9.43278 4.93996H13.4328C13.5914 4.93397 13.7476 4.98006 13.8775 5.07119C14.0074 5.16232 14.104 5.29348 14.1523 5.44464C14.2007 5.5958 14.1983 5.75863 14.1454 5.90827C14.0925 6.0579 13.9921 6.18611 13.8594 6.2733L10.6128 8.62663L11.8528 12.4466C11.9018 12.5921 11.9031 12.7495 11.8563 12.8958C11.8096 13.042 11.7173 13.1695 11.5929 13.2596C11.4686 13.3497 11.3187 13.3977 11.1652 13.3966C11.0116 13.3954 10.8624 13.3452 10.7394 13.2533L7.48611 10.8733L4.23945 13.2333C4.11645 13.3252 3.96729 13.3754 3.81374 13.3766C3.66019 13.3777 3.5103 13.3297 3.38596 13.2396C3.26162 13.1495 3.16933 13.022 3.12259 12.8758C3.07584 12.7295 3.07707 12.5721 3.12611 12.4266L4.36611 8.60663L1.11945 6.2533C0.986836 6.16611 0.886415 6.0379 0.833527 5.88827C0.78064 5.73863 0.778194 5.5758 0.826564 5.42464C0.874934 5.27348 0.971459 5.14232 1.10139 5.05119C1.23133 4.96006 1.38752 4.91397 1.54611 4.91996H5.54611L6.81945 1.12663Z" stroke="#D1D1D1" stroke-linecap="round" stroke-linejoin="round"/>
</svg>
