<svg width="89" height="16" viewBox="0 0 89 16" fill="none" xmlns="http://www.w3.org/2000/svg">
<g clip-path="url(#clip0_17244_97031)">
<path fill-rule="evenodd" clip-rule="evenodd" d="M7.34191 2.12663C7.38796 1.9806 7.47936 1.85306 7.60284 1.76252C7.72633 1.67198 7.87546 1.62317 8.02857 1.62317C8.18169 1.62317 8.33082 1.67198 8.4543 1.76252C8.57779 1.85306 8.66919 1.9806 8.71524 2.12663L9.95524 5.93996H13.9552C14.1138 5.93397 14.27 5.98006 14.4 6.07119C14.5299 6.16232 14.6264 6.29348 14.6748 6.44464C14.7232 6.5958 14.7207 6.75863 14.6678 6.90827C14.6149 7.0579 14.5145 7.18611 14.3819 7.2733L11.1352 9.62663L12.3752 13.4466C12.4243 13.5921 12.4255 13.7495 12.3788 13.8958C12.332 14.042 12.2397 14.1695 12.1154 14.2596C11.991 14.3497 11.8412 14.3977 11.6876 14.3966C11.5341 14.3954 11.3849 14.3452 11.2619 14.2533L8.00857 11.8733L4.76191 14.2333C4.63891 14.3252 4.48975 14.3754 4.3362 14.3766C4.18266 14.3777 4.03277 14.3297 3.90842 14.2396C3.78408 14.1495 3.69179 14.022 3.64505 13.8758C3.5983 13.7295 3.59953 13.5721 3.64857 13.4266L4.88857 9.60663L1.64191 7.2533C1.5093 7.16611 1.40888 7.0379 1.35599 6.88827C1.3031 6.73863 1.30066 6.5758 1.34902 6.42464C1.39739 6.27348 1.49392 6.14232 1.62385 6.05119C1.75379 5.96006 1.90998 5.91397 2.06857 5.91996H6.06857L7.34191 2.12663Z" fill="#151515"/>
<path fill-rule="evenodd" clip-rule="evenodd" d="M25.3419 2.12663C25.388 1.9806 25.4794 1.85306 25.6028 1.76252C25.7263 1.67198 25.8755 1.62317 26.0286 1.62317C26.1817 1.62317 26.3308 1.67198 26.4543 1.76252C26.5778 1.85306 26.6692 1.9806 26.7152 2.12663L27.9552 5.93996H31.9552C32.1138 5.93397 32.27 5.98006 32.4 6.07119C32.5299 6.16232 32.6264 6.29348 32.6748 6.44464C32.7232 6.5958 32.7207 6.75863 32.6678 6.90827C32.6149 7.0579 32.5145 7.18611 32.3819 7.2733L29.1352 9.62663L30.3752 13.4466C30.4243 13.5921 30.4255 13.7495 30.3788 13.8958C30.332 14.042 30.2397 14.1695 30.1154 14.2596C29.991 14.3497 29.8412 14.3977 29.6876 14.3966C29.5341 14.3954 29.3849 14.3452 29.2619 14.2533L26.0086 11.8733L22.7619 14.2333C22.6389 14.3252 22.4898 14.3754 22.3362 14.3766C22.1827 14.3777 22.0328 14.3297 21.9084 14.2396C21.7841 14.1495 21.6918 14.022 21.645 13.8758C21.5983 13.7295 21.5995 13.5721 21.6486 13.4266L22.8886 9.60663L19.6419 7.2533C19.5093 7.16611 19.4089 7.0379 19.356 6.88827C19.3031 6.73863 19.3007 6.5758 19.349 6.42464C19.3974 6.27348 19.4939 6.14232 19.6239 6.05119C19.7538 5.96006 19.91 5.91397 20.0686 5.91996H24.0686L25.3419 2.12663Z" fill="#151515"/>
<path fill-rule="evenodd" clip-rule="evenodd" d="M43.3419 2.12663C43.388 1.9806 43.4794 1.85306 43.6028 1.76252C43.7263 1.67198 43.8755 1.62317 44.0286 1.62317C44.1817 1.62317 44.3308 1.67198 44.4543 1.76252C44.5778 1.85306 44.6692 1.9806 44.7152 2.12663L45.9552 5.93996H49.9552C50.1138 5.93397 50.27 5.98006 50.4 6.07119C50.5299 6.16232 50.6264 6.29348 50.6748 6.44464C50.7232 6.5958 50.7207 6.75863 50.6678 6.90827C50.6149 7.0579 50.5145 7.18611 50.3819 7.2733L47.1352 9.62663L48.3752 13.4466C48.4243 13.5921 48.4255 13.7495 48.3788 13.8958C48.332 14.042 48.2397 14.1695 48.1154 14.2596C47.991 14.3497 47.8412 14.3977 47.6876 14.3966C47.5341 14.3954 47.3849 14.3452 47.2619 14.2533L44.0086 11.8733L40.7619 14.2333C40.6389 14.3252 40.4898 14.3754 40.3362 14.3766C40.1827 14.3777 40.0328 14.3297 39.9084 14.2396C39.7841 14.1495 39.6918 14.022 39.645 13.8758C39.5983 13.7295 39.5995 13.5721 39.6486 13.4266L40.8886 9.60663L37.6419 7.2533C37.5093 7.16611 37.4089 7.0379 37.356 6.88827C37.3031 6.73863 37.3007 6.5758 37.349 6.42464C37.3974 6.27348 37.4939 6.14232 37.6239 6.05119C37.7538 5.96006 37.91 5.91397 38.0686 5.91996H42.0686L43.3419 2.12663Z" fill="#151515"/>
<path fill-rule="evenodd" clip-rule="evenodd" d="M61.3419 2.12663C61.388 1.9806 61.4794 1.85306 61.6028 1.76252C61.7263 1.67198 61.8755 1.62317 62.0286 1.62317C62.1817 1.62317 62.3308 1.67198 62.4543 1.76252C62.5778 1.85306 62.6692 1.9806 62.7152 2.12663L63.9552 5.93996H67.9552C68.1138 5.93397 68.27 5.98006 68.4 6.07119C68.5299 6.16232 68.6264 6.29348 68.6748 6.44464C68.7232 6.5958 68.7207 6.75863 68.6678 6.90827C68.6149 7.0579 68.5145 7.18611 68.3819 7.2733L65.1352 9.62663L66.3752 13.4466C66.4243 13.5921 66.4255 13.7495 66.3788 13.8958C66.332 14.042 66.2397 14.1695 66.1154 14.2596C65.991 14.3497 65.8412 14.3977 65.6876 14.3966C65.5341 14.3954 65.3849 14.3452 65.2619 14.2533L62.0086 11.8733L58.7619 14.2333C58.6389 14.3252 58.4898 14.3754 58.3362 14.3766C58.1827 14.3777 58.0328 14.3297 57.9084 14.2396C57.7841 14.1495 57.6918 14.022 57.645 13.8758C57.5983 13.7295 57.5995 13.5721 57.6486 13.4266L58.8886 9.60663L55.6419 7.2533C55.5093 7.16611 55.4089 7.0379 55.356 6.88827C55.3031 6.73863 55.3007 6.5758 55.349 6.42464C55.3974 6.27348 55.4939 6.14232 55.6239 6.05119C55.7538 5.96006 55.91 5.91397 56.0686 5.91996H60.0686L61.3419 2.12663Z" fill="#151515"/>
<g clip-path="url(#clip1_17244_97031)">
<path fill-rule="evenodd" clip-rule="evenodd" d="M79.3419 2.12663C79.388 1.9806 79.4794 1.85306 79.6028 1.76252C79.7263 1.67198 79.8755 1.62317 80.0286 1.62317C80.1817 1.62317 80.3308 1.67198 80.4543 1.76252C80.5778 1.85306 80.6692 1.9806 80.7152 2.12663L81.9552 5.93996H85.9552C86.1138 5.93397 86.27 5.98006 86.4 6.07119C86.5299 6.16232 86.6264 6.29348 86.6748 6.44464C86.7232 6.5958 86.7207 6.75863 86.6678 6.90827C86.6149 7.0579 86.5145 7.18611 86.3819 7.2733L83.1352 9.62663L84.3752 13.4466C84.4243 13.5921 84.4255 13.7495 84.3788 13.8958C84.332 14.042 84.2397 14.1695 84.1154 14.2596C83.991 14.3497 83.8412 14.3977 83.6876 14.3966C83.5341 14.3954 83.3849 14.3452 83.2619 14.2533L80.0086 11.8733L76.7619 14.2333C76.6389 14.3252 76.4898 14.3754 76.3362 14.3766C76.1827 14.3777 76.0328 14.3297 75.9084 14.2396C75.7841 14.1495 75.6918 14.022 75.645 13.8758C75.5983 13.7295 75.5995 13.5721 75.6486 13.4266L76.8886 9.60663L73.6419 7.2533C73.5093 7.16611 73.4089 7.0379 73.356 6.88827C73.3031 6.73863 73.3007 6.5758 73.349 6.42464C73.3974 6.27348 73.4939 6.14232 73.6239 6.05119C73.7538 5.96006 73.91 5.91397 74.0686 5.91996H78.0686L79.3419 2.12663Z" stroke="#EBEBEB" stroke-width="1.5" stroke-linecap="round" stroke-linejoin="round"/>
</g>
</g>
<defs>
<clipPath id="clip0_17244_97031">
<rect width="88" height="16" fill="white" transform="translate(0.00878906)"/>
</clipPath>
<clipPath id="clip1_17244_97031">
<rect width="16" height="16" fill="white" transform="translate(72.0088)"/>
</clipPath>
</defs>
</svg>
